<?xml version="1.0" encoding="utf-8"?>
<!-- Generator: Adobe Illustrator 23.0.5, SVG Export Plug-In . SVG Version: 6.00 Build 0)  -->
<svg version="1.1" id="Capa_1" xmlns="http://www.w3.org/2000/svg" xmlns:xlink="http://www.w3.org/1999/xlink" x="0px" y="0px"
	 viewBox="0 0 800 800" style="enable-background:new 0 0 800 800;" xml:space="preserve">
<style type="text/css">
	.st0{fill:#00000000;}
	.st1{fill:#f2f2f2;}
	.st2{fill:#b80000;}
	.st3{fill:#f2f2f2;}
	.st4{fill:#b80000;}
	.st5{fill:#f2f2f2;}
	.st6{fill:#f2f2f2;}
	.st7{fill:#00000000;}
	.st8{fill:#f2f2f2;}
	.st9{fill:#00000000;}
	.st10{fill:#00000000;}
	.st11{fill:#00000000;}
	<!--f2f2f2-->
</style>
<g>
	<path class="st0" d="M769.4,706.5c-246,0-492.1,0-738.2,0c0-203.9,0-407.9,0-611.9c246,0,492.1,0,738.2,0
		C769.4,298.6,769.4,502.6,769.4,706.5z M441.8,252.8c0.5-0.1,1.1,0,1.4-0.3c1.8-1.5,3.8-3,5.4-4.8c8.9-10,12.9-21.8,12.6-35.2
		c-0.1-4.2,0.4-4.7,4.4-5.7c2.2-0.5,4.3-1.2,6.8-1.9c-0.8-0.4-1-0.5-1.2-0.6c-7.4-1.5-11.7-6.1-14.1-13.1c-2.5-7-7.1-12.7-13.1-17
		c-0.6-0.4-1.4-0.7-2.5-1.2c0.6,1.4,0.9,2.2,1.2,3.1c2,5.2,2.9,10.6,2.2,16.2c-0.6,4.7-2.7,8.3-7.3,10c-2.1,0.8-4.2,1.7-6.8,2.7
		c1,0.3,1.5,0.5,2,0.6c8.9,2.5,13.8,8.2,14.7,17.6C448.7,233.6,445.9,243.3,441.8,252.8c0.1,0.1,0.1,0.1,0.2,0.2c0,0,0.1,0,0.1,0.1
		C442,253,441.9,252.9,441.8,252.8z M294.7,425.8c-1.8-1.6-4.9-0.9-5.8,1.3c-0.2,0.6-0.9,1-1.4,1.4c-0.6,0.4-1.2,0.8-1.7,1.2
		c0.6,0.7,1.2,1.5,1.7,2.2c0,6.9,0,13.8-0.1,20.7c-1.5,0-1.3,0.6-1.1,1.8c0.4,1.5,0.9,3.7,0.2,4.6c-1.7,2.1-0.9,2.8,0.9,3.7
		c-0.1,2.7-0.1,5.4-0.2,8.2c-1.2-0.1-2.2,0.1-2.2,1.7c0,1.6,1.1,1.7,2.3,1.6c0,1.2,0.1,2.4,0.1,3.6c0.2,27.1,0.3,54.3,0.5,81.4
		c0,4.4,0,8.9,0,13.3c0.4-1.7,0.4-3.4,0.5-5c0.1-2.4,0.3-4.9,0.4-7.3c12.7,22.9,25.4,45.9,38.3,69.3c0.8-1,1.3-1.8,1.9-2.4
		c19.4-20.5,38.8-41,58.1-61.6c1.1-1.1,1.9-2.7,2.3-4.2c1.4-5.5,6-9,12.1-8.9c5.2,0.1,9.9,4.3,10.8,9.6c0.1,0.8,0.5,1.7,1.1,2.2
		c16.8,17.9,33.7,35.7,50.6,53.5c3.7,3.9,7.3,7.8,11,11.7c0.3-0.5,0.5-0.7,0.7-1c12.3-22.8,24.7-45.6,37-68.5
		c0.4-0.7,0.7-1.5,0.7-2.2c0.1-7.4,0.1-14.7,0.1-22.1c0-2.7-0.1-5.4-0.2-8.1c0-0.5,0-1,0.1-1.4c0.5-2.5,1.9-3.7,4.1-3.5
		c2.1,0.2,3.3,1.4,3.3,3.9c0,5.8-0.2,11.7-0.3,17.5c-0.2,14.9-0.3,29.7-0.5,44.6c-0.2,19-0.4,38.1-0.6,57.1c0,3.8,0.9,4.3,4.3,2.7
		c29.5-13.8,55.3-32.9,77.5-56.7c37.8-40.6,59.6-88.5,65-143.7c2.6-26.2,1.3-52.2-4.1-78c-9.7-46.1-31.3-86-63.9-119.9
		c-19-19.7-40.7-35.9-65.5-47.7c-2-0.9-2.9-0.4-3.1,1.8c-0.4,4.7,1.4,7.8,5.7,10.3c40.8,23.9,72.9,56.3,94.9,98.4
		c16.2,31.1,24.8,64.2,26.1,99.2c0.8,21-1.4,41.8-5.7,62.4c-3.8,17.8-9.6,34.9-17,51.5c-0.3,0.6-1.3,1.3-1.8,1.2
		c-4.4-0.7-5.5-2.7-3.7-6.7c0.1-0.1,0.1-0.3,0.2-0.4c1.4-3,1.1-3.9-1.9-5.4c-4-2-8-4-12-6c-5.7-2.8-5.2-4.4-8.9,3
		c-11.8,23.7-27.8,44.3-47.1,62.4c-8.1,7.5-16.2,15-25.7,20.7c-1,0.6-2,1.1-3.1,1.7c-0.1-0.6-0.2-0.7-0.2-0.9
		c-0.1-21.1-0.1-42.2-0.2-63.3c0-2.3,1.1-3,3.3-3c7.7,0.1,15.3,0.1,23,0c17-0.2,30.7-7.2,41.3-20.4c9-11.3,12.5-24.5,12.7-38.6
		c0.2-13.8,0.1-27.5,0-41.3c0-2.3-0.2-4.7-0.6-6.9c-4.1-21.3-16.7-34.8-37.7-40.4c-1.8-0.5-2.6,0-2.6,1.8c0,7.4,0,14.7-0.1,22.1
		c-0.1,3,1.1,4.6,3.7,5.9c7,3.5,11.4,9.3,11.5,17.2c0.3,15.9,0.6,31.8,0,47.7c-0.5,13.4-9.7,22.8-23.2,24c-9,0.8-18.1,0.4-27.1,0.4
		c-1.7,0-2.9-0.9-3.1-2.7c-0.1-1.1-0.3-2.2-0.3-3.3c0.1-16.4,0.3-32.8,0.4-49.2c0-1-0.1-2.1-0.6-2.9c-3.2-5.1-7-9.7-11.9-13.4
		c-10.1-7.7-21.3-9.5-33.6-7.2c-12.2,2.3-22.2,8.5-30.8,17.2c-1.6,1.6-3.2,1.9-5.2,0.7c-2.1-1.3-3.2-3.5-2.1-5.5
		c1.5-2.6,3.3-5.1,5.4-7.2c5.5-5.3,11.9-9.4,18.6-12.9c6.1-3.2,12.3-6,19.3-6.6c11-0.9,20.6,2.8,29.2,9.3c3.9,3,7.6,6.3,11.6,9.6
		c0-5,0-9.9,0-14.7c0-1.9,0.8-2.8,2.7-2.8c9.4,0.1,18.9,0,28.3,0.2c4.2,0.1,4.8-0.4,4.8-4.7c-0.1-6.6-0.1-13.3,0-19.9
		c0-3.1-0.9-4.2-4.1-4.2c-8.9-0.1-17.7-0.2-26.6-0.2c-2.7,0-2.9-0.4-2.9-3.1c0.1-4.7,0.1-9.4,0-14.1c-0.1-2.9-0.7-3.3-3.5-3.4
		c-1.4,0-2.7-0.2-4.1-0.2c-33.5,0-67,0-100.6,0c-2.3,0-4.6,0.1-7,0.2c-2.9,0.1-3.9,1-4.1,3.9c-0.2,2.4,0,4.7,0,7.1c-3,0-5.9,0-8.8,0
		c0.2-1.2,0.4-2.3,0.5-3.4c0.1-1.2,0.1-2.4,0.1-3.6c0-3.6-0.6-4.2-4.2-4.2c-36.2-0.1-72.5-0.1-108.7-0.2c-3.6,0-4.4,0.8-4.4,4.4
		c0,17.3,0,34.6,0.1,51.8c0,0.8,0.1,1.5,0.1,2.5c3-2.1,5.6-4.2,8.4-5.9c9.2-5.5,19-8.2,29.6-5.3c13.6,3.7,25.3,10.9,35.2,20.9
		c1.4,1.4,2.5,3.3,3.3,5.2c0.9,2-0.2,4.1-2.3,5.2c-1.7,1-3.2,0.9-4.8-0.5c-3.9-3.3-7.8-6.5-11.9-9.6c-7.8-5.9-16.9-8.1-26.4-8.8
		C310,418.9,302.1,421.4,294.7,425.8z M288.4,574.2c0,6.1,0,12.1,0,18c0,0.7-0.4,1.4-0.6,2.2c-0.7-0.2-1.5-0.2-2.1-0.7
		c-11.5-8.7-22.4-18.1-32.2-28.6c-15.5-16.7-28.1-35.3-38.1-55.8c-1.6-3.3-2.1-3.4-5.3-1.8c-4.3,2.2-8.7,4.5-13,6.5
		c-4.3,2-4.8,3.5-2.7,7.8c0.4,0.9,0.6,2.5,0.1,3c-2.8,2.9-5.4,4.1-7.3-0.4c-3.4-8.2-7.2-16.2-10-24.6c-13.4-40-15.7-80.8-8.3-122.3
		c9.2-51.5,34.4-94.1,71.8-130c14.3-13.7,30.2-25.1,47.6-34.5c4.5-2.4,5.4-4.8,4.1-9.4c-0.5-1.9-1.5-2.5-3.3-1.7
		c-2.8,1.3-5.6,2.7-8.4,4.1c-21,11-39.3,25.5-55.9,42.5c-23.9,24.5-42.5,52.4-54.9,84.4c-11.7,30.4-17.5,61.8-16.4,94.4
		c0.7,22.8,3.6,45.2,10.1,67.1c12.3,41.7,35,77.1,65.6,107.6c17.9,17.8,38.3,32.1,60.2,44.3c3.6,2,7.2,3.1,11.4,3
		c5.8-0.2,11.5,0,17.3-0.1c0.7,0,1.4-0.1,2.1-0.1c0-4.7,0.1-9.2,0-13.6c0-1.4-0.4-2.9-1-4.1c-6.7-12.7-13.5-25.3-20.3-38
		C295.4,587.1,291.9,580.7,288.4,574.2z M299.9,343.4c1.1-4.2,4.2-6.5,8.8-6.5c22,0,44,0.1,66,0.1c47.9,0,95.8,0,143.7,0
		c1.4,0,2.9,0.1,4.3,0.4c2.8,0.6,4.2,2.8,4.1,5.8c-2,0-4,0-5.9,0c-32.9,0-65.7,0-98.6,0c-4.9,0-4.9,0-5,4.7
		c-0.1,3.9,0.3,4.3,4.2,4.3c14.6,0,29.1-0.1,43.7-0.1c29.2,0,58.4,0,87.6,0c0.8,0,1.6,0,2.9,0c-5.6-9-10.8-17.5-16.2-25.9
		c-0.6-1-2.3-1.7-3.5-1.7c-7-0.1-13.9,0-20.9,0.1c-2,0-3.3-0.8-4.2-2.5c-3.6-6.8-7.3-13.5-10.8-20.3c-1.8-3.6-4.4-5.3-8.5-5.3
		c-12.1,0.1-24.2,0.1-36.2,0.1c-40.4,0-80.8,0-121.2,0c-2.6,0-4.2,0.9-5.3,3.2c-3.6,7.2-7.4,14.3-11,21.5c-1.1,2.2-2.7,3.3-5.3,3.3
		c-7.1-0.1-14.2,0-21.4-0.1c-2,0-3.2,0.7-4.3,2.4c-2.8,4.7-5.7,9.2-8.6,13.8c-2.3,3.7-4.7,7.4-7.2,11.4c1.3,0,2.3,0,3.2,0
		c43.2,0,86.4,0,129.6,0c5.2,0,5.2,0,5.2-5.1c0-3.6-0.2-3.8-3.8-3.8c-15,0.1-29.9,0.2-44.9,0.2c-19.3,0-38.6,0-57.8,0
		C301.6,343.4,300.8,343.4,299.9,343.4z M196.1,415.5c3.8,0.1,4.9-0.3,5.7-2.9c4.5-14.3,13.5-25.2,25.1-34.2c3-2.3,3.1-2.6,1.1-5.9
		c-3.7-6.3-7.3-12.5-11.1-18.7c-2-3.3-2.1-6.6-0.8-10.2c9.9-27.7,24.1-53,42-76.2c4.8-6.3,10.3-12,15.5-17.9
		c1.1-1.3,2.5-2.6,1.4-4.4c-0.9-1.5-2.1-3.1-3.5-4.1c-0.4-0.3-2.2,1.4-3.3,2.2c-0.3,0.2-0.5,0.4-0.8,0.6
		c-23.2,17.5-43.1,38.1-59.1,62.4c-6.7,10.2-12.7,20.8-17.5,32.1c-1.2,3-0.9,3.7,1.9,5.1c3.2,1.6,6.3,3.4,9.5,5.1
		c1.4,0.8,1.8,1.8,1.2,3.4c-2,5.8-4,11.6-6,17.4c-0.6,1.7-1.3,2.3-3.2,1.5c-2.8-1.3-5.8-2.3-8.6-3.5c-2.9-1.2-3.6-0.9-4.3,2.2
		c-0.8,3.3-1.6,6.5-2.2,9.8c-1.1,5.7-2.2,11.4-3.1,17.2c-0.4,2.8,0.4,3.7,3.2,4.4c1.8,0.4,3.6,0.6,5.4,1c3.5,0.9,5.1,3.1,4.8,6.7
		c0,0.6-0.2,1.1-0.2,1.7c-0.2,3.3,1.1,4.9,4.4,5.3C194.5,415.6,195.4,415.5,196.1,415.5z M621.1,415.7c0.3,0,0.9-0.1,1.6-0.1
		c4.4-0.6,5.6-2,5.2-6.6c-0.1-1.1-0.3-2.2-0.5-3.3c-0.3-1.7,0.3-2.7,2-3.1c2.7-0.6,5.4-1.4,8.1-1.9c2.3-0.5,3.3-1.6,2.8-4
		c-1.9-9.2-3.9-18.4-5.8-27.6c-0.5-2.3-1.7-2.6-3.7-1.8c-3,1.2-6.1,2.4-9.1,3.6c-1.2,0.5-2.2,0.5-2.6-1c-1.4-4.4-3-8.7-4.3-13.2
		c-1.3-4.4,0.2-7.8,4.1-10.2c1-0.6,2.1-1.2,3.1-1.7c3.6-2,4.3-4.2,2.5-7.9c-15.2-31.7-35.8-59.2-62.7-82
		c-5.2-4.4-10.7-8.3-16.1-12.5c-1.6-1.2-2.6-1.1-3.8,0.6c-2.7,4-2.8,4,0.6,7.4c15,15,27.2,32.2,37.6,50.6c8,14.2,14.8,29,20.7,44.1
		c1,2.5,1.3,4.9-0.1,7.3c-3.6,6.2-7.2,12.4-10.8,18.6c-2.7,4.5-2.6,4.8,1.6,8.2c6.7,5.2,12.7,11,17.1,18.3c2.6,4.4,4.7,9.2,6.8,13.9
		C617,414.6,618.1,415.7,621.1,415.7z M397.7,284.1c1.3-2.1,3-4.1,3.9-6.3c4.3-10,2.7-19.5-2.7-28.6c-2.3-3.8-5.1-7.2-7.6-10.8
		c-4-5.7-6.8-11.9-7.3-19c-1-12.4,4.5-21.9,13.3-29.9c0.4-0.4,1-0.5,2-0.9c-0.3,1.3-0.5,2.2-0.8,3c-2.6,8.4-1.6,16.4,3.8,23.3
		c3.1,4,6.9,7.6,10.4,11.3c4.2,4.4,8.6,8.6,10.7,14.6c2.7,7.7,1.7,15.2-1.1,22.7c-0.4,1-0.7,2-1.1,3.3c17.6-5.9,23.4-26,11.8-40.3
		c-2.8-3.5-6.3-6.5-9.6-9.7c-8.6-8.2-12.2-18.1-9.1-29.8c1.7-6.4,4.4-12.6,6.8-18.9c6.6-17.3,0.9-35-14.6-45.1
		c-0.4-0.3-0.9-0.4-1.6-0.7c7.9,14.2,5.3,25.9-3.6,37c-3.9,4.9-8.5,9.3-12.7,14c-4.6,5.2-9.5,10.2-13.3,16
		c-11.4,16.9-9.9,36.4,3.3,51.7c3.1,3.6,6.5,7.1,9.7,10.6c4.7,5.2,8.4,11,9.3,18C398.2,274.3,397.7,279,397.7,284.1z M511,649.2
		c0.6-24.7,1.3-49.3,1.9-74.2c-0.4,0.5-0.6,0.7-0.7,0.9c-10,18.6-19.9,37.3-29.9,55.9c-0.3,0.5-0.6,1-0.6,1.5c0,5.3,0,10.5,0,15.9
		C491.6,649.2,501.3,649.2,511,649.2z M326.5,649.2c49.5,0,98.8,0,148,0c0-2.3,0-4.4,0-6.6c-49.4,0-98.7,0-148,0
		C326.5,644.8,326.5,646.9,326.5,649.2z M393.5,602.6c0,9.4,0,18.7,0,28.1c0,4.5,2.9,7.6,7.1,7.6c4.2,0,7.3-3.1,7.3-7.5
		c0-18.5,0-37.1,0-55.6c0-4.4-3.2-7.6-7.2-7.7c-4.1-0.1-7.2,3.3-7.2,7.8C393.5,584.4,393.5,593.5,393.5,602.6z M417.3,613.1
		c0,5.8,0,11.5,0,17.3c0,4.8,3,8,7.3,8c4.2,0,7.2-3.3,7.2-7.9c0-11.5,0-23,0-34.5c0-4.6-3.1-7.8-7.3-7.9c-4.2,0-7.3,3.3-7.3,8
		C417.3,601.8,417.3,607.4,417.3,613.1z M386.5,613.3c0-5.8,0-11.7,0-17.5c0-4.5-3-7.7-7.1-7.7c-4.1-0.1-7.4,3.2-7.4,7.5
		c-0.1,11.8-0.1,23.5,0,35.3c0,4.3,3.3,7.5,7.4,7.4c4.1-0.1,7-3.1,7-7.5C386.5,625,386.5,619.2,386.5,613.3z M455.4,625.4
		c0-1.7,0-3.4,0-5c-0.1-4-3.1-7.2-7-7.3c-3.6-0.2-7.1,2.7-7.3,6.5c-0.3,3.9-0.3,7.8,0,11.7c0.2,3.9,3.7,6.7,7.5,6.4
		c3.9-0.2,6.8-3.2,6.9-7.2C455.5,628.8,455.4,627.1,455.4,625.4z M346.6,625.4c0,1.7,0,3.3,0,5c0.1,4.1,3.2,7.3,7.3,7.3
		c3.9,0,7.1-3.1,7.2-7.1c0.1-3.4,0.1-6.9,0-10.3c-0.1-4.2-3.4-7.3-7.4-7.2c-3.9,0.1-7,3.3-7.1,7.3
		C346.5,622,346.6,623.7,346.6,625.4z"/>
	<path class="st1" d="M288,559.2c-0.2-27.1-0.3-54.3-0.5-81.4c0-1.2-0.1-2.4-0.1-3.6c0-1.1-0.1-2.2-0.1-3.4c0.1-2.7,0.1-5.4,0.2-8.2
		c2.2-0.8,4.5-1.6,6.7-2.4c1.9-0.1,3.8-0.2,6.1-0.3c-1.7,2.2-3.5,3.7-4.2,5.6c-2.6,6.8-2.4,13.6,2.3,19.5c2.5,3.1,5.5,6,8.8,8.4
		c8.5,6,18.3,8.5,28.5,9.6c10.1,1.1,20.1-0.2,30-1.5c1.4-0.2,2.9-0.5,4.3-0.7c0.6-0.1,1.3-0.2,1.9-0.3c1.1-0.2,2.3-0.5,3.4-0.7
		c0.3,0,0.6-0.1,0.9-0.1c0.3-0.1,0.7-0.2,1-0.2c0.3-0.1,0.6-0.1,0.9-0.2c1.5,0.2,1.9-0.5,1.5-1.9c0-3.5,0-7,0-10.6
		c-0.3-0.4-0.7-0.8-1-1.1c-0.8-0.2-1.6-0.3-2.4-0.5c-1.9-0.9-3.9-1.8-5.8-2.7c-0.5-0.3-0.9-0.7-1.4-1c-0.8-0.8-1.7-1.6-2.5-2.5
		c-0.5-0.4-0.9-0.8-1.4-1.3c-1-0.8-1.9-1.6-2.9-2.4c-0.8-0.6-1.5-1.2-2.3-1.8c-2.8-2-5.7-4-8.5-6.1c-0.2-0.1-0.4-0.3-0.6-0.4
		c-2.1-1.4-4.2-2.9-6.3-4.3c-0.5-0.3-1-0.6-1.5-0.9c-1.3-0.8-2.6-1.5-3.9-2.3c-0.8-0.4-1.6-0.8-2.4-1.1c-3.2-1.3-6.4-2.5-9.6-3.8
		c-0.8-0.3-1.5-0.5-2.3-0.8c-0.6-0.2-1.3-0.3-1.9-0.5c-0.5-0.1-1-0.2-1.5-0.2c-1.8-0.3-3.5-0.7-5.3-1c-0.1-0.1-0.3-0.2-0.4-0.1
		c-1.1-0.1-2.3-0.3-3.4-0.4c-0.9-0.1-1.7-0.3-2.6-0.4c-7.5-0.4-15,0-22.4,1.5l-0.1,0c0-6.9,0-13.8,0.1-20.7c2.4-2.1,4.8-4.1,7.2-6.2
		c7.4-4.4,15.3-6.9,23.9-6.2c9.5,0.7,18.6,2.9,26.4,8.8c4.1,3.1,8,6.3,11.9,9.6c1.6,1.4,3.1,1.5,4.8,0.5c2-1.2,3.1-3.3,2.3-5.2
		c-0.8-1.9-1.9-3.8-3.3-5.2c-9.9-10-21.6-17.2-35.2-20.9c-10.5-2.9-20.4-0.2-29.6,5.3c-2.8,1.7-5.5,3.8-8.4,5.9c0-1-0.1-1.7-0.1-2.5
		c0-17.3,0-34.6-0.1-51.8c0-3.5,0.8-4.4,4.4-4.4c36.2,0,72.5,0.1,108.7,0.2c3.6,0,4.2,0.6,4.2,4.2c0,1.2,0,2.4-0.1,3.6
		c-0.1,1.1-0.3,2.2-0.5,3.4c2.9,0,5.7,0,8.8,0c0-2.4-0.1-4.8,0-7.1c0.2-2.9,1.2-3.8,4.1-3.9c2.3-0.1,4.6-0.2,7-0.2
		c33.5,0,67,0,100.6,0c1.4,0,2.7,0.1,4.1,0.2c2.8,0.1,3.4,0.5,3.5,3.4c0.1,4.7,0.1,9.4,0,14.1c0,2.7,0.2,3.1,2.9,3.1
		c8.9,0.1,17.7,0.2,26.6,0.2c3.1,0,4.1,1.1,4.1,4.2c-0.1,6.6-0.1,13.3,0,19.9c0,4.3-0.5,4.8-4.8,4.7c-9.4-0.2-18.9-0.2-28.3-0.2
		c-1.9,0-2.7,0.9-2.7,2.8c0,4.8,0,9.7,0,14.7c-4-3.3-7.7-6.6-11.6-9.6c-8.6-6.6-18.2-10.2-29.2-9.3c-7,0.6-13.2,3.4-19.3,6.6
		c-6.8,3.5-13.2,7.6-18.6,12.9c-2.1,2.1-3.9,4.6-5.4,7.2c-1.1,2-0.1,4.2,2.1,5.5c1.9,1.2,3.6,0.9,5.2-0.7
		c8.6-8.7,18.6-14.9,30.8-17.2c12.3-2.3,23.5-0.4,33.6,7.2c4.8,3.7,8.7,8.3,11.9,13.4c0.5,0.8,0.7,1.9,0.6,2.9
		c-0.1,16.4-0.2,32.8-0.4,49.2c0,1.1,0.1,2.2,0.3,3.3c0.2,1.8,1.4,2.7,3.1,2.7c9-0.1,18.1,0.4,27.1-0.4c13.5-1.2,22.7-10.6,23.2-24
		c0.6-15.9,0.3-31.8,0-47.7c-0.2-7.9-4.5-13.7-11.5-17.2c-2.7-1.3-3.8-3-3.7-5.9c0.2-7.4,0.1-14.7,0.1-22.1c0-1.8,0.8-2.3,2.6-1.8
		c21,5.6,33.6,19.1,37.7,40.4c0.4,2.3,0.6,4.6,0.6,6.9c0.1,13.8,0.2,27.5,0,41.3c-0.2,14.2-3.7,27.4-12.7,38.6
		c-10.6,13.2-24.3,20.2-41.3,20.4c-7.7,0.1-15.3,0.1-23,0c-2.2,0-3.3,0.7-3.3,3c0.1,21.1,0.1,42.2,0.2,63.3c0,0.2,0.1,0.3,0.2,0.9
		c1.1-0.6,2.1-1.1,3.1-1.7c9.5-5.8,17.6-13.2,25.7-20.7c19.3-18.1,35.3-38.7,47.1-62.4c3.7-7.4,3.2-5.8,8.9-3c4,2,8,4,12,6
		c3.1,1.5,3.4,2.4,1.9,5.4c-0.1,0.1-0.1,0.3-0.2,0.4c-1.8,4-0.7,6,3.7,6.7c0.6,0.1,1.6-0.6,1.8-1.2c7.5-16.6,13.3-33.7,17-51.5
		c4.4-20.6,6.5-41.4,5.7-62.4c-1.3-35-9.8-68.1-26.1-99.2c-22-42.1-54.1-74.5-94.9-98.4c-4.2-2.5-6.1-5.6-5.7-10.3
		c0.2-2.3,1.2-2.8,3.1-1.8c24.8,11.8,46.6,28,65.5,47.7c32.6,33.9,54.2,73.7,63.9,119.9c5.4,25.8,6.7,51.8,4.1,78
		c-5.5,55.2-27.2,103.2-65,143.7c-22.2,23.8-47.9,42.9-77.5,56.7c-3.4,1.6-4.3,1.1-4.3-2.7c0.2-19,0.4-38.1,0.6-57.1
		c0.2-14.9,0.3-29.7,0.5-44.6c0.1-5.8,0.3-11.7,0.3-17.5c0-2.6-1.1-3.8-3.3-3.9c-2.2-0.2-3.6,1-4.1,3.5c-0.1,0.5-0.1,1-0.1,1.4
		c0.1,2.7,0.2,5.4,0.2,8.1c0,7.4,0,14.7-0.1,22.1c0,0.8-0.3,1.6-0.7,2.2c-12.3,22.8-24.6,45.6-37,68.5c-0.1,0.3-0.3,0.5-0.7,1
		c-3.7-4-7.4-7.9-11-11.7c-16.9-17.8-33.7-35.7-50.6-53.5c-0.5-0.6-0.9-1.4-1.1-2.2c-0.9-5.2-5.6-9.4-10.8-9.6
		c-6-0.1-10.7,3.4-12.1,8.9c-0.4,1.5-1.2,3.1-2.3,4.2c-19.3,20.6-38.7,41-58.1,61.6c-0.6,0.6-1.1,1.4-1.9,2.4
		c-12.9-23.4-25.6-46.4-38.3-69.3C288.6,559.9,288.3,559.5,288,559.2z M505.5,529.5c-6.3,3.5-12.8,2.8-19.4,1.1
		c-14.8-3.7-29.8-4.8-44.9-2c-5.3,1-10.4,2.9-15.4,4.9c-1.5,0.6-3,2.6-3.3,4.2c-0.5,2.8-0.1,5.7-0.1,8.6
		c13.6,4.6,25.5,11.5,34.5,22.7c9.1,11.2,13.6,24.1,13.1,39.1c7.1-8.4,8.7-17.1,4.4-26.6c-4.6-10-11-18.7-19.5-25.8
		c-2.8-2.3-5.3-4.9-7.8-7.4c-1.2-1.2-2.3-3-0.6-4.4c2.4-2,4.9-4.6,7.7-5.3c5.2-1.3,10.7-1.8,16.1-2.1c8.7-0.5,16.5,3.1,24.6,5.6
		c0.8,0.3,2.4,0.1,2.8-0.5C500.4,537.6,502.9,533.5,505.5,529.5c0-0.1,0.1-0.2,0.2-0.3c-0.1,0-0.2,0-0.3,0
		C505.4,529.3,505.5,529.4,505.5,529.5z M515.4,452.7c-15-2.9-29.6-2.1-43.9,3.2c-12.7,4.7-23.1,13.2-33.5,21.5
		c-4.6,3.7-8.7,7.8-15,8.2c0,4.2-0.1,8.1,0.1,12c0,0.6,1,1.5,1.7,1.6c7.9,1.3,15.7,2.7,23.7,3.6c10.6,1.3,21.2,0.8,31.6-2.2
		c8.8-2.5,16.7-6.5,23-13.5c5.6-6.1,6.7-13.1,4.3-20.7c-0.7-2.2-2.6-4-4.1-6.2c4.4-1.2,8.2,1.3,12.3,2.4
		C515.4,459.4,515.4,456.2,515.4,452.7z M296.7,529.6c2.3,3.6,4.8,7.1,7,10.8c1.2,2.1,2.3,2.2,4.4,1.4c9.9-3.6,19.8-6.7,30.6-5.2
		c5.9,0.8,11.8,1.4,16.1,6.2c2,2.2,2.3,3.2,0.3,5.5c-1.1,1.3-2.4,2.6-3.7,3.7c-8.5,7-16.1,14.9-21.2,24.8c-2,4-3.7,8.4-4.5,12.7
		c-1.2,6.9,1.7,12.8,6.5,18.5c0-1.5,0-2.3,0-3.1c0-9.5,2.4-18.3,6.9-26.6c8.1-14.9,20.8-24.3,36.2-30.4c4.4-1.7,4.4-1.7,4.4-6.4
		c0-6.5-0.6-7.4-6.7-9.9c-0.7-0.3-1.5-0.6-2.2-0.8c-17.6-5.4-35.3-4.7-53-0.8C310.8,531.7,303.8,533.9,296.7,529.6z M379.7,507.8
		c-1.4,0.1-2.5,0.1-3.5,0.3c-9.3,1.3-18.6,2.9-28,3.8c-9.1,0.9-18.1-0.9-27.1-2.4c-7.5-1.2-14.4-3.6-20.2-8.6
		c-0.3-0.3-0.8-0.6-1.3-0.6c-2.8-0.1-5.7,0-8.8,0c0.4,0.7,0.6,1.2,0.8,1.5c3.3,4.9,7.8,8.4,13.3,10.7c11,4.5,22.5,6.6,34.3,7.1
		c8.9,0.4,17.9-0.3,26.8-0.6c4.6-0.2,9.2-0.6,13.8-0.8C379.7,514.8,379.7,511.5,379.7,507.8z M512.3,500.7c-2.4,0-4.4,0.1-6.4,0
		c-1.9-0.1-3.5,0.4-5,1.7c-3.9,3.2-8.3,5.3-13.2,6.5c-17.7,4.4-35.6,4.5-53.5,1.1c-3.6-0.7-7.3-1.3-11-2c0,4,0,7.3,0,10.7
		c4.8,0.3,9.4,0.5,14.1,0.9c14.7,1.1,29.4,1.5,43.9-1.7c7.5-1.6,15-3.2,21.6-7.3C506.6,508.2,509.9,505.2,512.3,500.7z M418.2,525.9
		c0-3.2-0.1-6.1,0-8.8c0.1-1.8-0.6-2.6-2.1-3.2c-9.4-3.9-18.9-3.3-28.4-0.6c-1.1,0.3-2.7,1.6-2.8,2.6c-0.4,3.3-0.1,6.6-0.1,10.2
		C396,521.5,406.9,520.2,418.2,525.9z M418.2,509c0-3.2-0.1-6.2,0-9.1c0.1-1.3-0.5-2-1.6-2.5c-5.3-2.6-11-3.2-16.8-2.8
		c-3.9,0.3-7.7,1-11.5,1.8c-1.7,0.3-3.5,1.3-3.5,3.4c-0.1,3.1,0,6.2,0,8.9c5.6-1.1,11.1-2.5,16.6-3.2
		C407.1,504.7,412.6,506.4,418.2,509z"/>
	<path class="st1" d="M288.4,574.2c3.5,6.5,7,12.9,10.4,19.3c6.8,12.6,13.6,25.3,20.3,38c0.6,1.2,1,2.7,1,4.1c0.1,4.5,0,9,0,13.6
		c-0.8,0-1.5,0.1-2.1,0.1c-5.8,0-11.5-0.2-17.3,0.1c-4.2,0.2-7.8-1-11.4-3c-21.9-12.2-42.3-26.5-60.2-44.3
		c-30.7-30.6-53.3-65.9-65.6-107.6c-6.5-21.9-9.4-44.3-10.1-67.1c-1-32.7,4.7-64.1,16.4-94.4c12.4-32,31-59.9,54.9-84.4
		c16.5-16.9,34.9-31.4,55.9-42.5c2.8-1.4,5.6-2.8,8.4-4.1c1.8-0.9,2.8-0.2,3.3,1.7c1.3,4.6,0.4,7-4.1,9.4
		c-17.4,9.4-33.3,20.8-47.6,34.5c-37.4,35.9-62.6,78.5-71.8,130c-7.4,41.5-5.1,82.3,8.3,122.3c2.8,8.4,6.6,16.4,10,24.6
		c1.9,4.5,4.5,3.3,7.3,0.4c0.5-0.5,0.3-2.2-0.1-3c-2.1-4.3-1.6-5.8,2.7-7.8c4.4-2.1,8.7-4.3,13-6.5c3.2-1.6,3.7-1.5,5.3,1.8
		c9.9,20.5,22.6,39.1,38.1,55.8c9.8,10.6,20.7,19.9,32.2,28.6c0.5,0.4,1.4,0.4,2.1,0.7c0.2-0.7,0.6-1.4,0.6-2.2
		C288.4,586.3,288.4,580.3,288.4,574.2z M206,537.1c0.3,0.8,0.5,1.5,0.8,2.1c1,1.8,2.1,3.6,3.2,5.3c15.2,23.2,33.9,43.2,56,60
		c2.2,1.7,4.4,3.5,6.7,5c2.5,1.7,3.8,1.2,5-1.5c0.4-0.9,0.7-1.8,1.2-2.6c1.9-2.9,1.9-2.9-0.8-4.8c-16.4-11.6-31.1-25.2-43.7-40.7
		c-6.9-8.5-12.9-17.7-19.4-26.5c-0.6-0.8-2.1-1.9-2.6-1.7c-2,0.9-3.9,2.2-5.7,3.5C206.5,535.6,206.3,536.5,206,537.1z"/>
	<path class="st1" d="M299.9,343.4c0.9,0,1.8,0,2.6,0c19.3,0,38.6,0,57.8,0c15,0,29.9-0.1,44.9-0.2c3.6,0,3.8,0.2,3.8,3.8
		c0,5.1,0,5.1-5.2,5.1c-43.2,0-86.4,0-129.6,0c-0.9,0-1.9,0-3.2,0c2.6-4,4.9-7.7,7.2-11.4c2.9-4.6,5.8-9.2,8.6-13.8
		c1-1.7,2.3-2.4,4.3-2.4c7.1,0.1,14.2,0,21.4,0.1c2.6,0.1,4.1-1,5.3-3.3c3.6-7.2,7.4-14.3,11-21.5c1.1-2.3,2.7-3.2,5.3-3.2
		c40.4,0.1,80.8,0,121.2,0c12.1,0,24.2,0,36.2-0.1c4.1,0,6.7,1.6,8.5,5.3c3.4,6.8,7.2,13.5,10.8,20.3c0.9,1.7,2.2,2.5,4.2,2.5
		c7-0.1,13.9-0.2,20.9-0.1c1.2,0,2.9,0.8,3.5,1.7c5.4,8.4,10.6,16.9,16.2,25.9c-1.3,0-2.1,0-2.9,0c-29.2,0-58.4,0-87.6,0
		c-14.6,0-29.1,0.1-43.7,0.1c-3.8,0-4.2-0.4-4.2-4.3c0.1-4.7,0.1-4.7,5-4.7c32.9,0,65.7,0,98.6,0c2,0,4,0,5.9,0
		c0.1-3-1.3-5.2-4.1-5.8c-1.4-0.3-2.8-0.4-4.3-0.4c-47.9,0-95.8,0-143.7,0c-22,0-44-0.1-66-0.1C304.1,337,300.9,339.2,299.9,343.4z
		 M501.2,324.5c-2.8-5-5.6-9.9-8.3-14.8c-1.4-2.5-3.3-3.7-6.2-3.6c-4.3,0.1-8.6,0.1-13,0.1c-33,0-66.1,0-99.1,0
		c-11.4,0-22.9,0-34.3,0c-2.4,0-4.3,0.8-5.6,3c-2.4,4.3-4.8,8.5-7.1,12.7c-0.4,0.7-0.6,1.5-1,2.6C385,324.5,442.9,324.5,501.2,324.5
		z"/>
	<path class="st1" d="M196.1,415.5c-0.8,0-1.6,0.1-2.4,0c-3.3-0.4-4.6-2.1-4.4-5.3c0-0.6,0.2-1.1,0.2-1.7c0.3-3.5-1.4-5.8-4.8-6.7
		c-1.8-0.4-3.6-0.6-5.4-1c-2.8-0.7-3.6-1.5-3.2-4.4c0.9-5.8,1.9-11.5,3.1-17.2c0.6-3.3,1.4-6.5,2.2-9.8c0.8-3.1,1.4-3.4,4.3-2.2
		c2.9,1.2,5.8,2.2,8.6,3.5c1.8,0.8,2.6,0.2,3.2-1.5c2-5.8,3.9-11.6,6-17.4c0.6-1.6,0.2-2.6-1.2-3.4c-3.2-1.7-6.3-3.5-9.5-5.1
		c-2.8-1.4-3.1-2.1-1.9-5.1c4.8-11.3,10.8-21.9,17.5-32.1c16-24.3,35.9-44.9,59.1-62.4c0.3-0.2,0.5-0.4,0.8-0.6
		c1.1-0.8,2.9-2.5,3.3-2.2c1.4,1,2.6,2.5,3.5,4.1c1.1,1.8-0.3,3.1-1.4,4.4c-5.2,5.9-10.7,11.7-15.5,17.9
		c-17.9,23.2-32.1,48.6-42,76.2c-1.3,3.7-1.3,6.9,0.8,10.2c3.8,6.2,7.4,12.5,11.1,18.7c1.9,3.3,1.8,3.6-1.1,5.9
		c-11.7,9-20.7,19.9-25.1,34.2C201.1,415.1,199.9,415.6,196.1,415.5z"/>
	<path class="st1" d="M621.1,415.7c-3,0-4.1-1.1-5.6-4.3c-2.1-4.7-4.2-9.5-6.8-13.9c-4.3-7.3-10.4-13.1-17.1-18.3
		c-4.3-3.3-4.3-3.6-1.6-8.2c3.6-6.2,7.2-12.4,10.8-18.6c1.4-2.5,1.1-4.8,0.1-7.3c-5.9-15.2-12.7-30-20.7-44.1
		c-10.5-18.4-22.6-35.6-37.6-50.6c-3.4-3.4-3.3-3.4-0.6-7.4c1.2-1.8,2.3-1.9,3.8-0.6c5.4,4.2,10.9,8.1,16.1,12.5
		c26.9,22.8,47.5,50.3,62.7,82c1.8,3.7,1.1,5.9-2.5,7.9c-1,0.6-2.1,1.1-3.1,1.7c-3.9,2.4-5.4,5.8-4.1,10.2c1.3,4.4,2.9,8.8,4.3,13.2
		c0.5,1.5,1.4,1.5,2.6,1c3-1.2,6.1-2.3,9.1-3.6c2-0.8,3.2-0.5,3.7,1.8c1.9,9.2,3.8,18.4,5.8,27.6c0.5,2.4-0.5,3.6-2.8,4
		c-2.7,0.6-5.4,1.3-8.1,1.9c-1.8,0.4-2.4,1.4-2,3.1c0.2,1.1,0.4,2.2,0.5,3.3c0.4,4.5-0.8,5.9-5.2,6.6
		C622,415.6,621.4,415.6,621.1,415.7z"/>
	<path class="st2" d="M397.7,284.1c0-5,0.5-9.7-0.1-14.3c-0.9-7-4.7-12.8-9.3-18c-3.2-3.6-6.5-7-9.7-10.6
		c-13.2-15.4-14.7-34.8-3.3-51.7c3.9-5.7,8.8-10.7,13.3-16c4.2-4.7,8.8-9.1,12.7-14c8.9-11.1,11.5-22.8,3.6-37
		c0.7,0.3,1.2,0.4,1.6,0.7c15.5,10,21.2,27.8,14.6,45.1c-2.4,6.2-5.1,12.4-6.8,18.9c-3.1,11.6,0.5,21.5,9.1,29.8
		c3.3,3.1,6.8,6.2,9.6,9.7c11.5,14.3,5.7,34.4-11.8,40.3c0.4-1.2,0.7-2.3,1.1-3.3c2.8-7.5,3.8-15,1.1-22.7
		c-2.1-5.9-6.5-10.1-10.7-14.6c-3.5-3.7-7.2-7.3-10.4-11.3c-5.4-7-6.5-14.9-3.8-23.3c0.3-0.8,0.4-1.7,0.8-3c-1,0.4-1.6,0.5-2,0.9
		c-8.8,8-14.3,17.6-13.3,29.9c0.6,7,3.3,13.3,7.3,19c2.5,3.6,5.3,7,7.6,10.8c5.4,9,7,18.6,2.7,28.6C400.7,280,399,282,397.7,284.1z"
		/>
	<path class="st1" d="M511,649.2c-9.7,0-19.4,0-29.3,0c0-5.4,0-10.6,0-15.9c0-0.5,0.4-1,0.6-1.5c10-18.6,19.9-37.3,29.9-55.9
		c0.1-0.2,0.3-0.4,0.7-0.9C512.3,600,511.7,624.6,511,649.2z"/>
	<path class="st3" d="M326.5,649.2c0-2.2,0-4.4,0-6.6c49.3,0,98.6,0,148,0c0,2.2,0,4.3,0,6.6C425.3,649.2,376,649.2,326.5,649.2z"/>
	<path class="st4" d="M441.8,252.8c4.1-9.5,6.8-19.2,5.7-29.7c-1-9.3-5.8-15.1-14.7-17.6c-0.5-0.1-1-0.3-2-0.6
		c2.6-1,4.7-1.9,6.8-2.7c4.6-1.8,6.8-5.3,7.3-10c0.7-5.6-0.2-11-2.2-16.2c-0.3-0.8-0.6-1.6-1.2-3.1c1.2,0.6,1.9,0.8,2.5,1.2
		c6.1,4.4,10.6,10,13.1,17c2.5,7,6.7,11.6,14.1,13.1c0.2,0,0.4,0.2,1.2,0.6c-2.6,0.7-4.7,1.4-6.8,1.9c-4,1-4.5,1.5-4.4,5.7
		c0.2,13.3-3.7,25.2-12.6,35.2c-1.6,1.8-3.5,3.2-5.4,4.8C442.9,252.8,442.3,252.7,441.8,252.8C441.8,252.8,441.8,252.8,441.8,252.8z
		"/>
	<path class="st5" d="M393.5,602.6c0-9.1,0-18.2,0-27.3c0-4.6,3.1-7.9,7.2-7.8c4,0.1,7.2,3.3,7.2,7.7c0,18.5,0,37.1,0,55.6
		c0,4.4-3.2,7.5-7.3,7.5c-4.2,0-7.1-3.1-7.1-7.6C393.5,621.3,393.5,612,393.5,602.6z"/>
	<path class="st6" d="M417.3,613.1c0-5.7,0-11.3,0-17c0-4.7,3.1-8.1,7.3-8c4.2,0,7.3,3.3,7.3,7.9c0,11.5,0,23,0,34.5
		c0,4.6-3.1,7.8-7.2,7.9c-4.3,0-7.3-3.2-7.3-8C417.3,624.6,417.3,618.9,417.3,613.1z"/>
	<path class="st1" d="M386.5,613.3c0,5.8,0,11.7,0,17.5c0,4.3-2.9,7.4-7,7.5c-4.1,0.1-7.4-3.1-7.4-7.4c-0.1-11.8-0.1-23.5,0-35.3
		c0-4.3,3.3-7.6,7.4-7.5c4.1,0.1,7.1,3.2,7.1,7.7C386.5,601.6,386.5,607.5,386.5,613.3z"/>
	<path class="st6" d="M455.4,625.4c0,1.7,0,3.4,0,5c-0.1,4-3,7-6.9,7.2c-3.8,0.2-7.3-2.5-7.5-6.4c-0.2-3.9-0.2-7.8,0-11.7
		c0.2-3.8,3.7-6.6,7.3-6.5c3.9,0.2,7,3.3,7,7.3C455.5,622.1,455.4,623.7,455.4,625.4z"/>
	<path class="st1" d="M346.6,625.4c0-1.7,0-3.3,0-5c0.1-4,3.2-7.2,7.1-7.3c4-0.1,7.3,3.1,7.4,7.2c0.1,3.4,0.1,6.9,0,10.3
		c-0.1,4.1-3.3,7.1-7.2,7.1c-4,0-7.2-3.2-7.3-7.3C346.5,628.7,346.6,627,346.6,625.4z"/>
	<path class="st7" d="M294.7,425.8c-2.4,2.1-4.8,4.1-7.2,6.2c-0.6-0.7-1.2-1.5-1.7-2.2c0.6-0.4,1.2-0.8,1.7-1.2
		c0.5-0.4,1.2-0.8,1.4-1.4C289.8,425,292.9,424.2,294.7,425.8z"/>
	<path class="st7" d="M294.2,460.3c-2.2,0.8-4.5,1.6-6.7,2.4c-1.8-0.8-2.6-1.6-0.9-3.7c0.7-0.9,0.2-3.1-0.2-4.6
		c-0.3-1.2-0.4-1.8,1.1-1.8l0.1,0c0,2.5,0,5,0,7.7c2.2-0.3,3.9-0.7,5.7-0.8C293.5,459.5,293.9,460,294.2,460.3z"/>
	<path class="st8" d="M288,559.2c0.3,0.3,0.6,0.7,0.9,1c-0.1,2.4-0.3,4.9-0.4,7.3c-0.1,1.7,0,3.3-0.5,5
		C288,568.1,288,563.7,288,559.2z"/>
	<path class="st7" d="M287.3,470.9c0,1.1,0.1,2.2,0.1,3.4c-1.2,0-2.3,0-2.3-1.6C285.1,471,286.1,470.8,287.3,470.9z"/>
	<path class="st4" d="M441.8,252.8c0.1,0.1,0.2,0.2,0.3,0.3c0,0-0.1,0-0.1-0.1C441.9,252.9,441.9,252.9,441.8,252.8
		C441.8,252.8,441.8,252.8,441.8,252.8z"/>
	<path class="st7" d="M515.4,452.7c0,3.5,0,6.7,0,10c-4.1-1.1-7.9-3.5-12.3-2.4c1.5,2.2,3.4,4,4.1,6.2c2.4,7.6,1.3,14.5-4.3,20.7
		c-6.3,6.9-14.2,10.9-23,13.5c-10.4,3-20.9,3.4-31.6,2.2c-7.9-0.9-15.8-2.3-23.7-3.6c-0.7-0.1-1.6-1.1-1.7-1.6
		c-0.1-3.9-0.1-7.8-0.1-12c6.4-0.4,10.4-4.5,15-8.2c10.4-8.3,20.8-16.8,33.5-21.5C485.7,450.5,500.4,449.8,515.4,452.7z"/>
	<path class="st0" d="M294.2,460.3c-0.4-0.3-0.8-0.9-1.1-0.8c-1.7,0.2-3.5,0.5-5.7,0.8c0-2.7,0-5.2,0-7.7c7.4-1.5,14.9-1.9,22.4-1.5
		c0.9,0,1.7,0.3,2.6,0.4c0.6,0.8,1.2,1.6,1.8,2.4c0.5-0.7,1.1-1.3,1.6-2c0.2-0.1,0.3,0,0.4,0.1c1.1,0.8,2.1,1.8,3.3,2.3
		c1,0.5,2.1,0.2,2-1.3c0.5,0.1,1,0.2,1.5,0.2c0.3,1.7,1,1.6,1.9,0.5c0.8,0.3,1.5,0.5,2.3,0.8c1.7,3.6,6,5.3,9.6,3.8
		c0.8,0.4,1.6,0.8,2.4,1.1c0,1-0.3,2.4,0.2,3c1.4,1.8,2.6,0.1,3.7-0.8c0.5,0.3,1,0.6,1.5,0.9c-0.5,0.5-1.1,0.9-1.5,1.5
		c-0.8,1.3-0.3,2.2,1.1,2.3c2.2,0.2,4.4,0.3,6.6,0.5c0.2,0.1,0.4,0.3,0.6,0.4c-1.3,2.2-0.9,3,1.5,3.5c0.7,0.1,1.6,0.7,1.9,1.3
		c1,1.6,3,2.2,5,1.3c0.8,0.6,1.5,1.2,2.3,1.8c0,2,1.4,2.3,2.9,2.4c0.5,0.4,0.9,0.8,1.4,1.3c-1.6,1.1-0.4,2.1,0.3,2.8
		c0.7,0.7,1.7,1,2.2-0.4c0.5,0.3,0.9,0.7,1.4,1c0.1,1.1,0.2,2.1,0.3,3.2c1.9-0.2,3.7-0.3,5.6-0.5c0.8,0.2,1.6,0.3,2.4,0.5
		c0.3,0.4,0.7,0.8,1,1.1c0,3.5,0,7,0,10.6c-0.5,0.6-1,1.3-1.5,1.9c-0.3,0.1-0.6,0.1-0.9,0.2c-0.3,0.1-0.7,0.2-1,0.2
		c-0.3,0-0.6,0.1-0.9,0.1c-0.6-0.5-1.1-1-1.7-1.5c-0.6,0.7-1.1,1.5-1.7,2.2c-0.6,0.1-1.3,0.2-1.9,0.3c0-2.5-0.8-3.3-2.3-2.2
		c-0.9,0.7-1.4,1.9-2,2.9c-10,1.4-20,2.6-30,1.5c-10.2-1.1-20-3.6-28.5-9.6c-3.3-2.3-6.3-5.2-8.8-8.4c-4.7-5.9-4.9-12.7-2.3-19.5
		c0.7-1.9,2.5-3.4,4.2-5.6C298,460.1,296.1,460.2,294.2,460.3z"/>
	<path class="st9" d="M505.4,529.4c-2.6,4-5.1,8.1-7.8,12.1c-0.4,0.6-2,0.7-2.8,0.5c-8.1-2.5-15.9-6-24.6-5.6
		c-5.4,0.3-10.9,0.8-16.1,2.1c-2.9,0.7-5.3,3.3-7.7,5.3c-1.7,1.4-0.6,3.2,0.6,4.4c2.5,2.6,5.1,5.1,7.8,7.4
		c8.5,7.1,14.9,15.8,19.5,25.8c4.3,9.4,2.6,18.2-4.4,26.6c0.5-15-4.1-27.9-13.1-39.1c-9-11.2-20.9-18-34.5-22.7
		c0-2.9-0.4-5.8,0.1-8.6c0.3-1.6,1.8-3.6,3.3-4.2c5-2,10.1-3.9,15.4-4.9c15.1-2.8,30.1-1.7,44.9,2
		C492.7,532.3,499.2,533,505.4,529.4L505.4,529.4z"/>
	<path class="st9" d="M296.7,529.6c7.1,4.3,14.1,2.1,21.1,0.6c17.7-3.9,35.4-4.6,53,0.8c0.8,0.2,1.5,0.5,2.2,0.8
		c6.1,2.4,6.7,3.3,6.7,9.9c0,4.6,0,4.6-4.4,6.4c-15.5,6.1-28.2,15.5-36.2,30.4c-4.5,8.3-6.9,17.1-6.9,26.6c0,0.8,0,1.6,0,3.1
		c-4.7-5.7-7.7-11.6-6.5-18.5c0.8-4.4,2.4-8.8,4.5-12.7c5-9.9,12.7-17.7,21.2-24.8c1.3-1.1,2.6-2.4,3.7-3.7c2-2.3,1.8-3.3-0.3-5.5
		c-4.4-4.8-10.3-5.3-16.1-6.2c-10.7-1.5-20.7,1.6-30.6,5.2c-2.1,0.8-3.2,0.7-4.4-1.4C301.6,536.7,299.1,533.2,296.7,529.6z"/>
	<path class="st10" d="M379.7,507.8c0,3.7,0,6.9,0,10.5c-4.6,0.3-9.2,0.7-13.8,0.8c-8.9,0.3-17.9,1-26.8,0.6
		c-11.8-0.5-23.3-2.6-34.3-7.1c-5.4-2.2-10-5.7-13.3-10.7c-0.3-0.4-0.4-0.8-0.8-1.5c3.1,0,6,0,8.8,0c0.4,0,0.9,0.3,1.3,0.6
		c5.9,5,12.7,7.4,20.2,8.6c9,1.4,18,3.3,27.1,2.4c9.4-0.9,18.7-2.5,28-3.8C377.2,508,378.3,508,379.7,507.8z"/>
	<path class="st10" d="M512.3,500.7c-2.3,4.5-5.6,7.5-9.5,9.9c-6.6,4.1-14.1,5.7-21.6,7.3c-14.5,3.2-29.2,2.7-43.9,1.7
		c-4.6-0.3-9.2-0.6-14.1-0.9c0-3.4,0-6.8,0-10.7c3.7,0.7,7.4,1.3,11,2c17.9,3.3,35.7,3.3,53.5-1.1c4.9-1.2,9.3-3.3,13.2-6.5
		c1.5-1.3,3.1-1.8,5-1.7C507.9,500.8,509.9,500.7,512.3,500.7z"/>
	<path class="st9" d="M418.2,525.9c-11.3-5.7-22.1-4.4-33.3,0.1c0-3.7-0.2-7,0.1-10.2c0.1-1,1.7-2.3,2.8-2.6
		c9.5-2.7,19-3.2,28.4,0.6c1.5,0.6,2.2,1.5,2.1,3.2C418,519.9,418.2,522.7,418.2,525.9z"/>
	<path class="st10" d="M418.2,509c-5.5-2.6-11.1-4.3-16.8-3.7c-5.5,0.6-11,2.1-16.6,3.2c0-2.7-0.1-5.8,0-8.9c0.1-2.1,1.8-3,3.5-3.4
		c3.8-0.8,7.7-1.5,11.5-1.8c5.8-0.4,11.5,0.2,16.8,2.8c1.1,0.6,1.7,1.2,1.6,2.5C418.1,502.9,418.2,505.8,418.2,509z"/>
	<path class="st7" d="M360.1,473.5c-2,0.9-4.1,0.3-5-1.3c-0.4-0.6-1.2-1.1-1.9-1.3c-2.4-0.5-2.8-1.3-1.5-3.5
		C354.4,469.4,357.3,471.4,360.1,473.5z"/>
	<path class="st7" d="M351,467c-2.2-0.1-4.4-0.2-6.6-0.5c-1.5-0.2-1.9-1.1-1.1-2.3c0.4-0.6,1-1,1.5-1.5
		C346.8,464.1,348.9,465.6,351,467z"/>
	<path class="st7" d="M337,458.3c-3.6,1.5-7.9-0.1-9.6-3.8C330.6,455.8,333.8,457.1,337,458.3z"/>
	<path class="st7" d="M376.4,485.1c-1.9,0.2-3.7,0.3-5.6,0.5c-0.1-1.1-0.2-2.1-0.3-3.2C372.5,483.3,374.5,484.2,376.4,485.1z"/>
	<path class="st7" d="M365.8,501.5c0.7-1,1.1-2.3,2-2.9c1.4-1.1,2.2-0.2,2.3,2.2C368.6,501,367.2,501.3,365.8,501.5z"/>
	<path class="st7" d="M343.2,461.7c-1.1,0.9-2.3,2.5-3.7,0.8c-0.5-0.6-0.2-2-0.2-3C340.7,460.2,342,461,343.2,461.7z"/>
	<path class="st7" d="M321.6,453.1c0.1,1.5-0.9,1.8-2,1.3c-1.2-0.6-2.2-1.5-3.3-2.3C318.1,452.4,319.8,452.8,321.6,453.1z"/>
	<path class="st7" d="M369.2,481.3c-0.5,1.3-1.5,1.1-2.2,0.4c-0.7-0.7-1.9-1.7-0.3-2.8C367.5,479.7,368.3,480.5,369.2,481.3z"/>
	<path class="st7" d="M315.9,452c-0.5,0.7-1.1,1.3-1.6,2c-0.6-0.8-1.2-1.6-1.8-2.4C313.6,451.7,314.8,451.9,315.9,452z"/>
	<path class="st7" d="M372,500.5c0.6-0.7,1.1-1.5,1.7-2.2c0.6,0.5,1.1,1,1.7,1.5C374.3,500,373.1,500.3,372,500.5z"/>
	<path class="st7" d="M365.3,477.6c-1.5-0.1-2.9-0.4-2.9-2.4C363.4,476,364.3,476.8,365.3,477.6z"/>
	<path class="st7" d="M378.2,499.2c0.5-0.6,1-1.3,1.5-1.9C380.2,498.6,379.7,499.3,378.2,499.2z"/>
	<path class="st7" d="M325.1,453.8c-1,1.1-1.7,1.2-1.9-0.5C323.8,453.5,324.4,453.7,325.1,453.8z"/>
	<path class="st7" d="M379.8,486.7c-0.3-0.4-0.7-0.8-1-1.1C379.1,486,379.4,486.3,379.8,486.7z"/>
	<path class="st7" d="M376.3,499.6c0.3-0.1,0.7-0.2,1-0.2C377,499.5,376.7,499.5,376.3,499.6z"/>
	<path class="st9" d="M505.5,529.5c0-0.1-0.1-0.2-0.1-0.3c0.1,0,0.2,0,0.3,0C505.6,529.3,505.5,529.4,505.5,529.5
		C505.4,529.4,505.5,529.5,505.5,529.5z"/>
	<path class="st9" d="M206,537.1c0.3-0.6,0.4-1.5,0.9-1.8c1.8-1.3,3.6-2.6,5.7-3.5c0.5-0.2,2,0.9,2.6,1.7c6.5,8.8,12.5,18,19.4,26.5
		c12.6,15.6,27.3,29.1,43.7,40.7c2.7,1.9,2.7,2,0.8,4.8c-0.5,0.8-0.8,1.7-1.2,2.6c-1.2,2.7-2.5,3.2-5,1.5c-2.3-1.6-4.5-3.3-6.7-5
		c-22.1-16.8-40.8-36.8-56-60c-1.1-1.7-2.2-3.5-3.2-5.3C206.5,538.6,206.3,537.9,206,537.1z"/>
	<path class="st11" d="M501.2,324.5c-58.2,0-116.2,0-174.5,0c0.4-1.1,0.6-1.9,1-2.6c2.4-4.3,4.8-8.5,7.1-12.7c1.2-2.2,3.1-3,5.6-3
		c11.4,0,22.9,0,34.3,0c33,0,66.1,0,99.1,0c4.3,0,8.6,0,13-0.1c2.9-0.1,4.8,1.1,6.2,3.6C495.5,314.7,498.3,319.5,501.2,324.5z"/>
</g>
</svg>
