<svg id="Capa_1" data-name="Capa 1" xmlns="http://www.w3.org/2000/svg" viewBox="0 0 419.02 193.15"><defs><style>.cls-1{stroke:#000;}.cls-1,.cls-2{stroke-miterlimit:10;stroke-width:5px;}.cls-2{stroke:#b80000;}</style></defs><title>TIPOGRAFIA</title><path class="cls-1" d="M71.4,434.65a1.9,1.9,0,0,1-2,1.89,36.85,36.85,0,0,1-12.52-2.83,40.63,40.63,0,0,1-12-8,40.41,40.41,0,0,1-8-12A36.84,36.84,0,0,1,34,399.19,36.86,36.86,0,0,1,44.9,372.8a35.68,35.68,0,0,1,12-8,36.8,36.8,0,0,1,29.06,0,35.24,35.24,0,0,1,11.86,8,41.27,41.27,0,0,1,3.15,3.53l.62.81a1.89,1.89,0,0,1-1.51,3h0a1.89,1.89,0,0,1-1.52-.78,34.18,34.18,0,0,0-11.25-9.79,32.37,32.37,0,0,0-15.86-4,32.77,32.77,0,0,0-13,2.62,33.87,33.87,0,0,0-17.9,17.9,33.86,33.86,0,0,0,0,26.07,34,34,0,0,0,17.9,17.9,32.42,32.42,0,0,0,11.27,2.57,1.88,1.88,0,0,1,1.77,1.88Z" transform="translate(-31.5 -359.3)"/><path class="cls-1" d="M139.33,367.61,160,434.14a1.89,1.89,0,0,1-1.8,2.45h0a1.9,1.9,0,0,1-1.81-1.33L141.27,387v-.21a4,4,0,0,0-1.44-1.92,4,4,0,0,0-4.7.05,4.28,4.28,0,0,0-1.44,2l-15,48.35a1.88,1.88,0,0,1-1.8,1.33h-.1a1.9,1.9,0,0,1-1.81-2.45l20.73-66.54A1.88,1.88,0,0,1,139.33,367.61Z" transform="translate(-31.5 -359.3)"/><path class="cls-1" d="M208,365.64H173.29a1.89,1.89,0,0,1-1.89-1.89v-.06a1.89,1.89,0,0,1,1.89-1.89H208a1.89,1.89,0,0,1,1.89,1.89v.06A1.89,1.89,0,0,1,208,365.64ZM173.29,397.7H208a1.89,1.89,0,0,1,1.89,1.89v.07a1.89,1.89,0,0,1-1.89,1.88H195.23a20.74,20.74,0,0,0-7.8,1.71A20.25,20.25,0,0,0,176.8,414.1a20.1,20.1,0,0,0-1.55,7.85V434.7a1.89,1.89,0,0,1-1.89,1.89h-.07a1.89,1.89,0,0,1-1.89-1.89V399.59A1.89,1.89,0,0,1,173.29,397.7Z" transform="translate(-31.5 -359.3)"/><path class="cls-1" d="M271.09,397.27a12.64,12.64,0,0,0,5.18-1.07,13.87,13.87,0,0,0,4.22-2.88,14.08,14.08,0,0,0,2.89-4.22,12.69,12.69,0,0,0,1.07-5.19,13.16,13.16,0,0,0-4.6-10,35.22,35.22,0,0,0-10-6A32.28,32.28,0,0,0,258,365.64a32.77,32.77,0,0,0-13,2.62A33.81,33.81,0,0,0,227,386.16a33.74,33.74,0,0,0,0,26.07,33.9,33.9,0,0,0,17.89,17.9,32.47,32.47,0,0,0,11.27,2.57,1.88,1.88,0,0,1,1.77,1.88v.07a1.9,1.9,0,0,1-2,1.89,36.85,36.85,0,0,1-12.52-2.83,37.1,37.1,0,0,1-20-20,36.84,36.84,0,0,1-2.89-14.53,36.86,36.86,0,0,1,10.9-26.39,44.68,44.68,0,0,1,5.61-4.59,33.43,33.43,0,0,1,6.36-3.42,36.8,36.8,0,0,1,29.06,0,33.43,33.43,0,0,1,6.36,3.42,39.85,39.85,0,0,1,5.5,4.59,39.34,39.34,0,0,1,4.59,5.51,32.26,32.26,0,0,1,3.42,6.35,37.32,37.32,0,0,1,3,14.53v0a1.89,1.89,0,0,1-1.89,1.89H259.84a1.89,1.89,0,0,1-1.89-1.89v-.07a1.89,1.89,0,0,1,1.89-1.89Z" transform="translate(-31.5 -359.3)"/><path class="cls-2" d="M34,548.06v-71a1.89,1.89,0,0,1,1.89-1.89H36a1.89,1.89,0,0,1,1.89,1.89v71A1.89,1.89,0,0,1,36,550h-.07A1.89,1.89,0,0,1,34,548.06Z" transform="translate(-31.5 -359.3)"/><path class="cls-1" d="M87.25,534.78h-.12a1.89,1.89,0,0,1-1.64-.95l-21.25-37a3.75,3.75,0,0,0-1.66-1.66,5.13,5.13,0,0,0-2.4-.59,4.58,4.58,0,0,0-4.6,4.6v48.86A1.88,1.88,0,0,1,53.69,550h-.06a1.88,1.88,0,0,1-1.89-1.89v-71a1.89,1.89,0,0,1,1.89-1.89h2.49L88.89,532A1.89,1.89,0,0,1,87.25,534.78Zm37.57-57.73v71a1.89,1.89,0,0,1-1.89,1.89h-.07a1.89,1.89,0,0,1-1.89-1.89V499.2a4.66,4.66,0,0,0-8.65-2.35l-5.87,10.37a1.87,1.87,0,0,1-1.64.95h-.12a1.89,1.89,0,0,1-1.64-2.83l17.39-30.18h2.49A1.89,1.89,0,0,1,124.82,477.05Z" transform="translate(-31.5 -359.3)"/><path class="cls-1" d="M157.94,477.12a1.89,1.89,0,0,1-1.89,1.89H154.2a14.55,14.55,0,0,0-5.82,1.17,14.67,14.67,0,0,0-7.86,7.85,14.63,14.63,0,0,0-1.17,5.83v54.2a1.89,1.89,0,0,1-1.89,1.89h-.07a1.89,1.89,0,0,1-1.89-1.89v-71a1.89,1.89,0,0,1,1.89-1.89h18.66a1.89,1.89,0,0,1,1.89,1.89ZM179,498.24a1.9,1.9,0,0,1,1.89,2.05,22,22,0,0,1-1.67,6.71,23.46,23.46,0,0,1-5.08,7.48,21.53,21.53,0,0,1-7.37,5,23.16,23.16,0,0,1-8.87,1.71H147.76a1.89,1.89,0,0,1-1.89-1.89v-.07a1.89,1.89,0,0,1,1.89-1.89h10.18a18.88,18.88,0,0,0,7.48-1.49,19.27,19.27,0,0,0,10.26-10.21A18.3,18.3,0,0,0,177.1,500a1.88,1.88,0,0,1,1.87-1.73Z" transform="translate(-31.5 -359.3)"/><path class="cls-1" d="M242.24,510.63a12.48,12.48,0,0,0,5.18-1.07,13.75,13.75,0,0,0,4.22-2.88,13.9,13.9,0,0,0,2.89-4.22,12.64,12.64,0,0,0,1.07-5.18,13.16,13.16,0,0,0-4.6-10,35.19,35.19,0,0,0-10-6A32,32,0,0,0,229.1,479a32.76,32.76,0,0,0-13,2.61,33.9,33.9,0,0,0-17.89,17.9,33.74,33.74,0,0,0,0,26.07,33.9,33.9,0,0,0,17.89,17.9,32.25,32.25,0,0,0,11.27,2.57,1.88,1.88,0,0,1,1.77,1.88V548a1.9,1.9,0,0,1-2,1.89,36.67,36.67,0,0,1-12.52-2.83,37.13,37.13,0,0,1-20-20,37.09,37.09,0,0,1-2.89-14.53,36.86,36.86,0,0,1,10.9-26.4,44.68,44.68,0,0,1,5.61-4.59,33.43,33.43,0,0,1,6.36-3.42,36.8,36.8,0,0,1,29.06,0,33.43,33.43,0,0,1,6.36,3.42,39.26,39.26,0,0,1,5.5,4.59,40.12,40.12,0,0,1,4.6,5.51A33.05,33.05,0,0,1,263.5,498a37.34,37.34,0,0,1,3,14.54v0a1.89,1.89,0,0,1-1.89,1.89H231a1.89,1.89,0,0,1-1.89-1.89v-.07a1.89,1.89,0,0,1,1.89-1.89Z" transform="translate(-31.5 -359.3)"/><path class="cls-1" d="M307,519.29a5.86,5.86,0,0,0-2.51,2,5.25,5.25,0,0,0-1,3.2,5.36,5.36,0,0,0,1.18,3.42l13.93,19a1.89,1.89,0,0,1-1.52,3h-.13a1.86,1.86,0,0,1-1.52-.77l-21.16-28.81a1.89,1.89,0,0,1,1.52-3h1.93a18.88,18.88,0,0,0,7.48-1.49,19.18,19.18,0,0,0,10.26-10.21,18.5,18.5,0,0,0,1.5-7.42,18.89,18.89,0,0,0-1.5-7.48,19.05,19.05,0,0,0-10.26-10.26,18.88,18.88,0,0,0-7.48-1.49H279.07a1.89,1.89,0,0,1-1.89-1.89v-.07a1.89,1.89,0,0,1,1.89-1.89h18.62a22.61,22.61,0,0,1,8.87,1.76A22.72,22.72,0,0,1,319,489.37a22.43,22.43,0,0,1,1.76,8.87A22.18,22.18,0,0,1,319,507a22.85,22.85,0,0,1-12,12.29ZM279.14,550h-.07a1.89,1.89,0,0,1-1.89-1.89V519.25a1.89,1.89,0,0,1,1.89-1.89h.07a1.89,1.89,0,0,1,1.89,1.89v28.81A1.89,1.89,0,0,1,279.14,550Z" transform="translate(-31.5 -359.3)"/><path class="cls-1" d="M335.73,548.06v-71a1.89,1.89,0,0,1,1.89-1.89h.07a1.89,1.89,0,0,1,1.89,1.89v71a1.89,1.89,0,0,1-1.89,1.89h-.07A1.89,1.89,0,0,1,335.73,548.06Z" transform="translate(-31.5 -359.3)"/><path class="cls-1" d="M378.56,481l20.63,66.53a1.9,1.9,0,0,1-1.81,2.45h0a1.88,1.88,0,0,1-1.8-1.32L380.5,500.37v-.21a4.16,4.16,0,0,0-1.44-1.92,4,4,0,0,0-4.71.05,4.48,4.48,0,0,0-1.44,2l-15,48.35a1.9,1.9,0,0,1-1.81,1.33H356a1.89,1.89,0,0,1-1.8-2.45L375,481A1.89,1.89,0,0,1,378.56,481Z" transform="translate(-31.5 -359.3)"/><path class="cls-1" d="M448,548v.07a1.88,1.88,0,0,1-1.88,1.89H412.52a1.88,1.88,0,0,1-1.89-1.89v-71a1.89,1.89,0,0,1,1.89-1.89h.07a1.89,1.89,0,0,1,1.89,1.89v52.28a16.18,16.18,0,0,0,1.33,6.57,16.87,16.87,0,0,0,8.87,8.87,16.18,16.18,0,0,0,6.57,1.33h14.89A1.89,1.89,0,0,1,448,548Z" transform="translate(-31.5 -359.3)"/></svg>